PathFileType	4	(X/Y/Z)	Patient5_TMGait_0pt45_1_left_13.trc.trc
DataRate	CameraRate	NumFrames	NumMarkers	Units	OrigDataRate	OrigDataStartFrame	OrigNumFrames
57.142857142857	57.142857142857	4	32	mm	57.142857142857	71	       141
Frame#	Time	R.ASIS			L.ASIS			Chest			R.Shoulder			Neck			L.Shoulder			L.Elbow			L.Wrist			R.Elbow			R.Wrist			L.Thigh.Superior			L.Thigh.Lateral			L.Thigh.Inferior			L.Patella			L.Shank.Superior			L.Shank.Lateral			L.Shank.Inferior			L.Heel			L.Midfoot.Lateral			L.Midfoot.Superior			L.Toe			R.Thigh.Superior			R.Thigh.Lateral			R.Thigh.Inferior			R.Patella			R.Shank.Superior			R.Shank.Lateral			R.Shank.Inferior			R.Heel			R.Midfoot.Lateral			R.Midfoot.Superior			R.Toe			
		X1	Y1	Z1	X2	Y2	Z2	X3	Y3	Z3	X4	Y4	Z4	X5	Y5	Z5	X6	Y6	Z6	X7	Y7	Z7	X8	Y8	Z8	X9	Y9	Z9	X10	Y10	Z10	X11	Y11	Z11	X12	Y12	Z12	X13	Y13	Z13	X14	Y14	Z14	X15	Y15	Z15	X16	Y16	Z16	X17	Y17	Z17	X18	Y18	Z18	X19	Y19	Z19	X20	Y20	Z20	X21	Y21	Z21	X22	Y22	Z22	X23	Y23	Z23	X24	Y24	Z24	X25	Y25	Z25	X26	Y26	Z26	X27	Y27	Z27	X28	Y28	Z28	X29	Y29	Z29	X30	Y30	Z30	X31	Y31	Z31	X32	Y32	Z32	

71	21.405000000000	993.377317101513	1007.669460174350	498.651586737944	997.178822690903	964.310749866553	263.672534859898	1050.681541341790	1451.085251180719	367.819190897629	929.463630478249	1520.258367871692	517.366300330891	931.429508829511	1572.556537815409	330.680071129454	1019.883808705541	1507.842517203919	164.889043541812	1026.124709557398	1175.161944087305	52.625266008484	1170.334986339824	933.725861218496	124.159813770545	837.129261690585	1204.431875225438	660.332844987423	1067.512114807513	1033.137192226434	614.321702319540	1008.458607221713	740.590214749813	274.839752213398	928.372906769702	674.146579171877	240.358970422800	995.543542405216	611.956691137309	302.331853438399	984.374280318975	496.564350936571	313.712908635725	930.572446489589	397.595907024374	341.401976490475	856.747307140902	331.569532075583	266.865666519277	887.491796338485	278.310593209770	356.939199665421	735.707027274983	52.131306455849	366.457930960807	824.276212766579	27.689656378976	306.893956764216	921.316730808575	88.951537332290	351.564483879476	1028.478826328076	44.107172719988	358.084455763526	1074.370786528349	819.940249589810	547.151113111542	1026.183943435132	734.660532417216	621.053414328903	1117.079501839574	698.048106441037	550.200889639537	1153.746559472561	608.972528961756	598.114503547972	1125.613297978255	495.087111296092	575.870601553543	1061.103963883965	426.868738539974	662.804175520926	1125.085006255599	355.766756484798	589.617977290903	1033.876755563707	116.117049299500	580.441638958035	1114.230077908830	96.375523500107	655.333263169443	1210.493842721205	175.854021209720	638.218879911226	1318.214702923456	147.890731572191	640.723229937408	
72	21.422500000000	991.807402932058	1007.167806725042	499.110319684736	994.441095328040	963.945272833141	264.015335011118	1047.199247572389	1450.835597538941	368.312691825499	926.904950722834	1519.336171250533	518.928442353745	927.325097026256	1571.993998572886	332.245532318248	1014.385588047476	1507.632289873672	165.535078800267	1018.385971034938	1174.975180315077	52.714203553962	1160.835169356127	932.257827722595	123.450563974904	836.012539516095	1203.514007876780	662.747015757740	1065.505168518988	1031.494792808821	615.091183031835	1004.492987590139	739.615413169796	275.380699934796	923.771330325546	673.683207970404	240.878606847524	990.435743175962	610.973780754558	302.869876162587	978.255421784000	495.883370209512	314.214149853735	923.954429374538	397.177968909688	341.848559952953	849.803500270174	331.599246838642	267.271568795899	880.445660571239	278.092205615648	357.281253709497	727.779015523951	52.161841115672	366.601635006776	816.319761281555	27.753481288592	306.975274829842	913.312804866903	88.926603771845	351.614783780743	1020.505556007447	44.127522128478	358.073809677240	1073.531592168358	818.892721493593	546.276376607564	1026.407124016319	733.633457298760	620.953108559807	1116.377395233337	697.081957727252	548.972895110907	1153.799178499401	608.222064793530	596.648715028482	1125.473096445738	494.071295031410	574.961165842149	1062.086334579874	425.938301615158	662.729803083921	1125.207915925822	354.797248899969	588.880948494044	1034.111966600200	115.052082110940	581.031634112902	1115.332083425335	95.516481544143	655.026970533112	1211.299512080663	175.135381014035	636.733165144587	1319.094330545617	147.322773588804	638.097156336446	
73	21.440000000000	990.411608304455	1006.774865553800	499.661564420289	991.871541136947	963.672690410955	264.456769876712	1043.843813260928	1450.583544841520	368.957295837215	924.508300710640	1518.444584176831	520.651342392293	923.340331640780	1571.435595864474	333.936369542625	1008.961324435057	1507.374265625374	166.328625961375	1010.607962887566	1174.784347873927	52.899175868611	1151.171754304944	930.683771316151	122.668864036393	834.965396716989	1202.613281301288	665.203014253521	1063.409038677957	1029.682343927579	615.826165675565	1000.677961396395	738.762258455578	275.760369278688	919.259313154940	673.222135160725	241.368860170407	985.606284013262	610.109447653212	303.214008184374	972.367731505186	495.207574295200	314.479447034745	917.546079458749	396.792567201655	342.112346993976	842.925898485868	331.720233162011	267.558632559676	873.532591710930	277.931146958457	357.472100660125	719.860373134222	52.229304516144	366.710318233646	808.376217061355	27.810608208594	307.054267115847	905.351618974693	88.911886586840	351.627119220778	1012.532300668602	44.143928863873	358.065230728226	1072.280552006991	817.429399576465	545.741165446340	1025.830322895594	732.159733131708	620.922766613064	1115.004579932476	695.607278951885	548.032955221718	1152.898865870399	606.863936486583	595.437464681680	1124.492960956896	492.586414870679	574.121453304132	1061.967498245896	424.449931527909	662.471715342286	1124.489577300468	353.330808532551	588.125223173127	1033.650599143562	113.460940900922	581.159971947024	1115.481770394008	94.133613413019	654.519468572574	1211.182507790380	173.900452527234	635.380217658451	1319.028352018425	146.261558005403	635.969291650785	
74	21.457500000000	989.209031964921	1006.508722622028	500.290895273620	989.489568045887	963.517053553340	264.980748323593	1040.634013776039	1450.337015055932	369.784442969760	922.273254554997	1517.587291559667	522.550219530150	919.497390531626	1570.885966216126	335.777661679310	1003.666448252484	1507.093661371944	167.304416473812	1002.825325458594	1174.622906658492	53.215216350752	1141.373177907406	929.030042125126	121.824882254372	833.940081512032	1201.739290452100	667.701914407236	1061.262204916980	1027.834079383683	616.511042431535	997.029294897878	738.040712769985	275.995266330766	914.864550857569	672.782143062281	241.833593201280	981.046985980208	609.365210963454	303.375126641840	966.729696347987	494.538407179897	314.516110962976	911.368286866362	396.437401786783	342.197730753083	836.132767583274	331.934101150105	267.740199376294	866.762554578090	277.826407853855	357.522651613372	711.953607512487	52.339751354195	366.782481729795	800.447729690561	27.864493993439	307.131931457311	897.436681026918	88.912592082677	351.601574690687	1004.558334350109	44.159211021343	358.055443409826	1070.684992687620	815.603975697258	545.554622650594	1024.482349307826	730.275009959573	620.970512395744	1113.028373797307	693.687931632090	547.409553332113	1151.101221401818	604.948215176932	594.501672671704	1122.728989815846	490.679242433591	573.336840707217	1060.779502052942	422.437699044826	662.011453331740	1122.961224008150	351.404212113334	587.315338288661	1032.482757056034	111.396572174715	580.759313334629	1114.684048671475	92.256829270742	653.740891749586	1210.158214341448	172.167085341480	634.087771006899	1318.041266741232	144.719486756933	634.251518238273	
